<?xml version="1.0" encoding="UTF-8" standalone="no"?>
<svg xmlns="http://www.w3.org/2000/svg" width="32" height="32" >
  <g id="crash">
    <path
       style="fill:none;stroke:#ffe65e;stroke-width:4;stroke-linejoin:miter;stroke-miterlimit:100"
       d="m 147.71411,203.21528 5.06455,-7.99957 2.1607,10.77442 11.37181,-5.33097 -5.75772,8.86828 1.81099,5.5497 8.80519,5.33097 -13.57622,-0.53123 8.40552,9.65574 -13.81978,-5.45596 -4.77728,11.52438 -1.3801,-9.04951 -2.32307,-17.09284 -1.30517,-3.34357 -3.67819,-8.86202 z m 0,0"
       transform="matrix(0.625519,0,0,0.625033,-79.792533,-118.7976)"
       id="explosion" />
    <path
       style="fill:none;stroke:#000000;stroke-width:1.3;stroke-linejoin:miter;stroke-miterlimit:100"
       d="m 147.71411,203.21528 5.06455,-7.99957 2.1607,10.77442 11.37181,-5.33097 -5.75772,8.86828 1.81099,5.5497 8.80519,5.33097 -13.57622,-0.53123 8.40552,9.65574 -13.81978,-5.45596 -4.77728,11.52438 -1.3801,-9.04951 -2.32307,-17.09284 -1.30517,-3.34357 -3.67819,-8.86202 z m 0,0"
       id="explosion-emphasis"
       transform="matrix(0.625519,0,0,0.625033,-79.792533,-118.7976)" />
    <path
       style="fill:#ffffff"
       d="m 8.988281,13.324219 0.671875,4.472656 -0.078125,5.195313 2.550781,0.02734 3.859376,-4.261719 2.203124,-1.097656 0.789063,-0.90625 4.269531,-1.6875 -1.050781,-3.488281 -6.894531,1.027344 -6.386719,-0.171875 z m 0,0"
       id="sprinkles" />
    <g id="plane">
      <path
        style="stroke:#000000;stroke-width:1.5"
        d="m 142.39353,206.11512 4.52125,-1.13744 8.02458,1.01245 -11.24066,3.46856 z m 0,0"
        id="wing"
        transform="matrix(0.625519,0,0,0.625033,-79.792533,-118.7976)" />
      <path
        style="stroke:#000000;stroke-width:2"
        d="m 154.53345,217.13953 -7.57496,9.75573 -4.07786,-0.0438 0.12489,-8.31205 -9.12991,1.46867 -4.92716,-9.04327 2.93506,-0.8562 4.52125,4.606 13.91344,-4.6185 m 2.97253,1.79365 3.64697,-1.21243 c 0,0 3.98419,-1.44992 7.37512,-1.8749 3.38469,-0.42498 5.33308,0.025 5.25189,1.54992 -0.0749,1.52491 -11.65282,6.5184 -11.65282,6.5184 l -1.26145,1.44992"
        transform="matrix(0.625519,0,0,0.625033,-79.792533,-118.7976)"
        id="fuselage" />
      </g>
  </g>
</svg>
