<svg xmlns="http://www.w3.org/2000/svg" width="32" height="32">
  <path 
    d="m 17.322672,13.173264 c 0,-0.297741 -0.05355,-0.558684 -0.160666,-0.772791 -0.107112,-0.214106 -0.291581,-0.384722 -0.550432,-0.508503 -0.181494,-0.08364 -0.392741,-0.13716 -0.63374,-0.150543 -0.243975,-0.02341 -0.523654,-0.03345 -0.844987,-0.03345 h -0.969949 v 3.231671 h 0.824159 c 0.428445,0 0.78548,-0.02341 1.074085,-0.0736 0.288605,-0.04684 0.529605,-0.157234 0.723,-0.327851 0.187444,-0.16727 0.321333,-0.351268 0.40464,-0.548647 0.08926,-0.204071 0.13389,-0.475049 0.13389,-0.816282 z M 21.5,21.5 H 18.23014 L 15.39765,17.100781 H 14.162898 V 21.5 H 11.5 v -12 h 4.489735 c 0.615888,0 1.142517,0.040145 1.582862,0.1204351 0.443321,0.080289 0.856888,0.2542517 1.240702,0.5252299 0.392741,0.267633 0.699197,0.615555 0.928295,1.047114 0.232075,0.424868 0.348112,0.960134 0.348112,1.602455 0,0.886533 -0.178519,1.609143 -0.535555,2.167827 -0.354062,0.558686 -0.859864,1.023696 -1.520382,1.395039 z m 0,0" 
    style="fill:#000000"
    id="r" />
</svg>
