<svg xmlns="http://www.w3.org/2000/svg" width="32" height="32">
    <g id="cc" transform="translate(5,10)" style="fill:#000000">
      <path
         d="m 5.905208,11.999989 q -1.289822,0 -2.385393,-0.38009 Q 2.432016,11.239809 1.647246,10.487385 0.862476,9.7349614 0.427358,8.6102051 0,7.4854488 0,6.0116302 0,4.638651 0.411817,3.5216522 0.823623,2.4046523 1.608393,1.605687 2.362081,0.8377505 3.473192,0.41887525 4.592074,0 5.912979,0 6.643355,0 7.226113,0.08533227 7.81663,0.16289605 8.313912,0.29476989 8.834506,0.44215099 9.254083,0.62831837 9.68143,0.80672718 10,0.96186686 V 3.762122 H 9.658129 Q 9.440565,3.5759557 9.106453,3.3199765 8.780112,3.0639973 8.360536,2.8157756 7.933178,2.5675538 7.435896,2.3969003 6.938625,2.2262479 6.371408,2.2262479 q -0.62937,0 -1.196576,0.2016801 Q 4.607615,2.6218518 4.125874,3.0795111 3.667445,3.5216577 3.379957,4.2508101 3.100239,4.9799625 3.100239,6.019392 q 0,1.0859723 0.303029,1.8151247 0.3108,0.7291523 0.777,1.1480276 0.47397,0.4266316 1.056717,0.6127979 0.582758,0.1784099 1.149964,0.1784099 0.543905,0 1.072258,-0.162896 Q 7.995342,9.44796 8.446001,9.1687106 8.826735,8.9437591 9.153076,8.6877799 9.479417,8.4318007 9.6892,8.2456344 H 10 V 11.007105 Q 9.564882,11.201029 9.168618,11.371682 8.772342,11.542335 8.337224,11.666446 7.770007,11.829342 7.272736,11.914668 6.775454,12 5.905208,12 Z"
         id="c1" />
      <path
         d="m 17.905204,11.999989 q -1.289821,0 -2.385391,-0.38009 -1.087801,-0.38009 -1.872572,-1.132514 Q 12.862471,9.7349614 12.42735,8.6102051 12,7.4854488 12,6.0116302 12,4.638651 12.41181,3.5216522 12.82362,2.4046523 13.608391,1.605687 14.362081,0.8377505 15.473193,0.41887525 16.592073,0 17.912974,0 q 0.73038,0 1.313129,0.08533227 0.590517,0.07756378 1.087799,0.20943762 0.520593,0.1473811 0.94017,0.33354848 Q 21.68143,0.80672718 22,0.96186686 V 3.762122 H 21.658118 Q 21.440554,3.5759557 21.106442,3.3199765 20.780102,3.0639973 20.360526,2.8157756 19.933179,2.5675538 19.435897,2.3969003 18.938615,2.2262479 18.371404,2.2262479 q -0.62937,0 -1.19658,0.2016801 -0.567211,0.1939238 -1.048951,0.6515831 -0.458431,0.4421466 -0.745921,1.171299 -0.27972,0.7291524 -0.27972,1.7685819 0,1.0859723 0.30303,1.8151247 0.3108,0.7291523 0.777001,1.1480276 0.47397,0.4266316 1.056721,0.6127979 0.58275,0.1784099 1.14996,0.1784099 0.543901,0 1.072264,-0.162896 Q 19.995332,9.44796 20.446001,9.1687106 20.826725,8.9437591 21.153066,8.6877799 21.479407,8.4318007 21.6892,8.2456344 H 22 v 2.7614706 q -0.435128,0.193924 -0.831393,0.364577 -0.396276,0.170653 -0.831393,0.294764 -0.567206,0.162896 -1.064488,0.248222 Q 18.775445,12 17.905204,12 Z"
         id="c2" />
    </g>
</svg>