<?xml version="1.0" encoding="UTF-8" standalone="no"?>
<svg xmlns="http://www.w3.org/2000/svg" width="32" height="36">
  <g id="ejection">
    <path
       style="fill:#000000;"
       d="M 31.703125,14.539062 C 31.910156,14.328125 32,14.050781 31.976562,13.78125 h 0.01172 C 30.917969,6.007812 24.152344,0 15.996094,0 7.859375,0 1.113281,5.972656 0.0117188,13.710938 0.0078125,13.722656 0.0078125,13.734375 0.00390625,13.746094 0.00390625,13.757812 0,13.769531 0,13.78125 H 0.00390625 C -0.015625,14.046875 0.078125,14.316406 0.28125,14.523438 l 8.789062,8.859374 c 0.285157,-0.09375 0.589844,-0.144531 0.910157,-0.144531 h 1.023437 c 0,-0.121093 0,-0.148437 0,-0.203125 0,-0.15625 0.0078,-0.304687 0.01953,-0.457031 L 1.96875,13.449219 c 0.765625,-1.515625 2.351562,-2.558594 4.183594,-2.558594 1.597656,0 3.007812,0.792969 3.851562,2 l 2.160156,6.976563 c 0.449219,-0.535157 1.015626,-0.976563 1.652344,-1.289063 l -1.730468,-5.601563 c 0.835937,-1.253906 2.273437,-2.085937 3.910156,-2.085937 1.605468,0 3.019531,0.800781 3.859375,2.015625 l -1.710938,5.664062 c 0.640625,0.304688 1.207031,0.746094 1.660157,1.285157 l 0.152343,-0.496094 1.960938,-6.488281 c 0.84375,-1.195313 2.246093,-1.980469 3.835937,-1.980469 1.859375,0 3.464844,1.070313 4.21875,2.621094 l -9.007812,9.097656 c 0.01563,0.148437 0.02344,0.296875 0.02344,0.445313 0,0.05078 0,0.0625 -0.0039,0.183593 h 0.902344 c 0.359375,0 0.703125,0.0625 1.023437,0.179688 z m 0,0"
       id="parachute" />
    <path
       style="fill:#eaeaea;stroke:#000000;stroke-width:0.5"
       d="m 22.871094,26.148438 c 0,-0.535157 -0.441406,-0.96875 -0.984375,-0.96875 H 18.1875 c 0.515625,-0.609376 0.835938,-1.324219 0.835938,-2.125 0,-1.648438 -1.355469,-3.035157 -3.027344,-3.035157 -1.671875,0 -3.03125,1.339844 -3.03125,2.988281 0,0.769532 0.292968,1.5 0.773437,2.03125 0,0.0039 -0.0039,0.01563 -0.0078,0.01563 -0.01172,0 -0.01953,0 -0.02734,0.125 H 9.980469 c -0.542969,0 -0.984375,0.433593 -0.984375,0.96875 0,0.535156 0.441406,0.96875 0.984375,0.96875 h 3.273437 v 8.003906 c 0,0.535156 0.4375,0.96875 0.980469,0.96875 0.542969,0 0.984375,-0.433594 0.984375,-0.96875 v -3.09375 c 0.242188,0.03906 0.359375,0.0625 0.550781,0.0625 0.191407,0 0.429688,-0.02344 0.550781,-0.0625 v 3.09375 c 0,0.535156 0.441407,0.96875 0.984376,0.96875 0.542968,0 0.980468,-0.433594 0.980468,-0.96875 v -8.003906 h 3.601563 c 0.542969,0 0.984375,-0.433594 0.984375,-0.96875 z m 0,0"
       id="pilot" />
  </g>
</svg>
