<svg xmlns="http://www.w3.org/2000/svg" width="128" height="128">
  <path
     style="fill:#000000"
     d="m 88.386081,97.039288 q 0,4.134312 -1.684352,7.388182 -1.646071,3.25386 -4.555405,5.39758 -3.368703,2.52653 -7.426458,3.59839 -4.019475,1.07186 -10.220951,1.07186 H 39.616451 V 57.49531 h 22.126252 q 6.890529,0 10.067828,0.459368 3.21558,0.459369 6.354599,2.028878 3.253861,1.646071 4.82337,4.440563 1.60779,2.756212 1.60779,6.316318 0,4.134317 -2.182001,7.311617 -2.182001,3.139018 -6.163195,4.899931 v 0.306246 q 5.588984,1.11014 8.842845,4.593685 3.292142,3.483545 3.292142,9.187372 z M 69.551969,73.611491 q 0,-1.416387 -0.727333,-2.832773 -0.689053,-1.416387 -2.488247,-2.10544 -1.60779,-0.612491 -4.019475,-0.650772 -2.373404,-0.07656 -6.699125,-0.07656 h -1.378106 v 12.058425 h 2.296843 q 3.483545,0 5.933511,-0.114842 2.449966,-0.114842 3.866352,-0.765614 1.990597,-0.880457 2.603089,-2.258563 0.612491,-1.416386 0.612491,-3.253861 z m 3.598387,23.198113 q 0,-2.717931 -1.07186,-4.172598 -1.033579,-1.492948 -3.560106,-2.220282 -1.722632,-0.497649 -4.746809,-0.53593 -3.024176,-0.03828 -6.316318,-0.03828 h -3.21558 v 14.202146 h 1.07186 q 6.201476,0 8.881126,-0.0383 2.67965,-0.0383 4.938212,-0.9953 2.296843,-0.95702 3.139019,-2.52653 0.880456,-1.607788 0.880456,-3.674946 z"
     id="bomber" />
</svg>