<svg xmlns="http://www.w3.org/2000/svg" width="128" height="128">
  <path 
    style="fill:#000000"
    d="m 96.042969,71.020508 q 0,5.585938 -4.74805,9.089844 -4.72265,3.478515 -12.847655,3.478515 -4.697265,0 -8.201172,-0.8125 -3.478515,-0.83789 -6.52539,-2.107421 v -9.064454 h 1.066406 q 3.021484,2.41211 6.753906,3.707031 3.757813,1.294923 7.210938,1.294923 0.888672,0 2.335937,-0.152344 1.447266,-0.152344 2.361328,-0.507812 1.117188,-0.457032 1.828122,-1.14258 0.73633,-0.685545 0.73633,-2.03125 0,-1.244139 -1.0664,-2.132812 -1.04102,-0.914063 -3.07227,-1.396483 -2.132813,-0.507813 -4.519532,-0.939455 -2.361328,-0.457031 -4.443359,-1.142577 -4.773438,-1.548829 -6.880859,-4.189454 -2.082032,-2.666015 -2.082032,-6.601562 0,-5.28125 4.722657,-8.607422 4.748046,-3.351563 12.1875,-3.351563 3.732421,0 7.363285,0.736328 3.65625,0.710938 6.32226,1.802735 v 8.708984 h -1.04101 q -2.28516,-1.828125 -5.61133,-3.046875 -3.300784,-1.24414 -6.753909,-1.24414 -1.21875,0 -2.4375,0.177734 -1.193359,0.152344 -2.310546,0.609375 -0.990235,0.380859 -1.701172,1.167969 -0.710938,0.761718 -0.710938,1.751953 0,1.498047 1.142578,2.310547 1.142578,0.787109 4.316407,1.447265 2.082031,0.431641 3.986328,0.837891 1.929692,0.40625 4.138672,1.117187 4.3418,1.421875 6.39844,3.884767 2.08203,2.4375 2.08203,6.347656 z M 59.048828,52.409179 H 41.656249 v 7.033203 h 16.123046 v 7.312501 H 41.656249 V 82.903321 H 31.95703 V 45.096679 h 27.091797 z" 
    id="corvette" />
</svg>