<svg xmlns="http://www.w3.org/2000/svg" width="128" height="128" >
  <g id="crash">
    <path
       style="fill:none;stroke:#ffe65e;stroke-width:9.5;stroke-linejoin:miter;stroke-miterlimit:100"
       d="M 48.823519,32.051926 61.041591,12.753208 66.254213,38.746166 93.688357,25.885365 79.798034,47.279818 84.166992,60.6683 105.40924,73.529102 72.657028,72.247525 92.935087,95.541703 59.595291,82.379366 48.07025,110.18158 44.740801,88.349914 39.136465,47.113961 35.987783,39.047701 27.114262,17.668349 Z m 0,0"
       id="explosion" />
    <path
       style="fill:none;stroke:#000000;stroke-width:3;stroke-linejoin:miter;stroke-miterlimit:100"
       d="M 48.823519,32.051926 61.041591,12.753207 66.254213,38.746166 93.688358,25.885365 79.798034,47.279818 84.166993,60.6683 105.40924,73.529102 72.657028,72.247526 92.935088,95.541705 59.595291,82.379367 48.07025,110.18159 44.740801,88.349915 39.136465,47.113961 35.987782,39.047701 27.114261,17.668348 Z m 0,0"
       id="explosion-inner" />
    <path
       style="fill:#ffffff"
       d="m 28.129769,47.759355 4.729347,8.062776 17.649747,-3.47479 0.115292,-7.104134 5.075112,-11.889662 -9.182054,-0.987123 -17.486078,4.421297 z"
       id="plane-bg" />
    <path
      style="fill:#aeaeae;stroke:#000000;stroke-width:3"
      d="M 65.274968,65.643752 47.000609,89.179152 37.162897,89.073486 37.46419,69.02092 15.438561,72.564041 3.5519622,50.74743 10.632705,48.681873 21.540082,59.793707 55.105831,48.651717 m 7.171137,4.327126 8.798204,-2.92495 c 0,0 9.611736,-3.497888 17.792251,-4.523139 8.165461,-1.025251 12.865887,0.06031 12.670027,3.739135 -0.1807,3.678798 -28.112075,15.72544 -28.112075,15.72544 l -3.043209,3.497887 M 35.987807,39.047701 46.895184,36.303662 66.254238,38.746166 39.13649,47.113961 Z m 0,0"
      id="plane" />
  </g>
</svg>
