<svg xmlns="http://www.w3.org/2000/svg" width="128" height="128">
  <g id="ejection">
    <path
       style="fill:#000000;"
       d="m 119.33181,51.210997 c 0.72923,-0.742984 1.04569,-1.719873 0.96313,-2.669244 h 0.0413 C 116.56625,21.161341 92.73566,0 64.006867,0 35.346869,0 11.585074,21.037511 7.7050372,48.294093 c -0.013759,0.04127 -0.013759,0.08255 -0.027518,0.12383 0,0.04127 -0.013759,0.08255 -0.013759,0.12383 h 0.013759 c -0.068795,0.935612 0.261421,1.884983 0.9768891,2.614212 L 39.612157,82.361374 c 1.00441,-0.330216 2.07761,-0.509082 3.20585,-0.509082 h 3.604857 c 0,-0.426526 0,-0.522839 0,-0.715468 0,-0.55036 0.02747,-1.0732 0.06879,-1.609802 L 14.598296,47.372239 c 2.696765,-5.338492 8.282916,-9.012146 14.735891,-9.012146 5.62743,0 10.594428,2.793078 13.566372,7.044608 l 7.608726,24.573577 c 1.582287,-1.884986 3.577344,-3.439753 5.820058,-4.540472 L 50.234108,45.707397 c 2.944425,-4.416637 8.007737,-7.347304 13.772759,-7.347304 5.654946,0 10.635706,2.820595 13.593893,7.099644 l -6.026444,19.950548 c 2.256476,1.073204 4.25153,2.627971 5.847577,4.526715 l 0.5366,-1.747395 6.90702,-22.853698 c 2.971943,-4.210255 7.911421,-6.975814 13.511336,-6.975814 6.549291,0 12.204241,3.769968 14.859721,9.23229 L 81.508317,79.637094 c 0.05505,0.52284 0.08256,1.045684 0.08256,1.568528 0,0.178862 0,0.220144 -0.01374,0.64667 h 3.17833 c 1.265828,0 2.476622,0.220144 3.604857,0.632917 z m 0,0"
       id="parachute" />
    <path
       style="fill:#aeaeae;stroke:#000000;stroke-width:2"
       d="m 88.435985,92.102754 c 0,-1.884986 -1.554766,-3.412233 -3.467268,-3.412233 H 71.938942 c 1.816188,-2.146407 2.944428,-4.664302 2.944428,-7.484896 0,-5.8063 -4.774374,-10.690746 -10.663226,-10.690746 -5.888853,0 -10.676984,4.719338 -10.676984,10.525634 0,2.710526 1.031922,5.283457 2.72428,7.154681 0,0.01374 -0.01374,0.05505 -0.02747,0.05505 -0.04128,0 -0.06879,0 -0.0963,0.440288 H 43.031282 c -1.912502,0 -3.467268,1.527247 -3.467268,3.412233 0,1.884982 1.554766,3.412232 3.467268,3.412232 h 11.530041 v 28.192193 c 0,1.88498 1.541008,3.41223 3.453511,3.41223 1.912501,0 3.467267,-1.52725 3.467267,-3.41223 v -10.89713 c 0.85306,0.13758 1.265828,0.22015 1.940019,0.22015 0.674194,0 1.513491,-0.0826 1.940018,-0.22015 v 10.89713 c 0,1.88498 1.554771,3.41223 3.467272,3.41223 1.912498,0 3.453506,-1.52725 3.453506,-3.41223 V 95.515 h 12.685801 c 1.912502,0 3.467268,-1.52725 3.467268,-3.412232 z m 0,0"
       id="pilot" />
  </g>
</svg>
