<?xml version="1.0" encoding="UTF-8" standalone="no"?>
<svg
   xmlns:dc="http://purl.org/dc/elements/1.1/"
   xmlns:cc="http://creativecommons.org/ns#"
   xmlns:rdf="http://www.w3.org/1999/02/22-rdf-syntax-ns#"
   xmlns:svg="http://www.w3.org/2000/svg"
   xmlns="http://www.w3.org/2000/svg"
   xmlns:sodipodi="http://sodipodi.sourceforge.net/DTD/sodipodi-0.dtd"
   xmlns:inkscape="http://www.inkscape.org/namespaces/inkscape"
   width="31.946537"
   height="32.946537"
   viewBox="0 0 31.946537 32.946537"
   version="1.1"
   id="svg680"
   sodipodi:docname="blue-water-ai.svg"
   inkscape:version="1.0.2-2 (e86c870879, 2021-01-15)">
  <metadata
     id="metadata686">
    <rdf:RDF>
      <cc:Work
         rdf:about="">
        <dc:format>image/svg+xml</dc:format>
        <dc:type
           rdf:resource="http://purl.org/dc/dcmitype/StillImage" />
        <dc:title></dc:title>
      </cc:Work>
    </rdf:RDF>
  </metadata>
  <defs
     id="defs684" />
  <sodipodi:namedview
     pagecolor="#ffffff"
     bordercolor="#666666"
     borderopacity="1"
     objecttolerance="10"
     gridtolerance="10"
     guidetolerance="10"
     inkscape:pageopacity="0"
     inkscape:pageshadow="2"
     inkscape:window-width="2045"
     inkscape:window-height="945"
     id="namedview682"
     showgrid="false"
     units="px"
     fit-margin-top="1"
     fit-margin-left="0"
     fit-margin-right="0"
     fit-margin-bottom="0"
     inkscape:zoom="11.8125"
     inkscape:cx="0.88559663"
     inkscape:cy="17.48842"
     inkscape:window-x="0"
     inkscape:window-y="0"
     inkscape:window-maximized="0"
     inkscape:current-layer="svg680" />
  <g
     id="surface1"
     transform="translate(-0.00142162,0.99864228)">
    <path
       style="fill:#91cce3;fill-opacity:1;fill-rule:nonzero;stroke:#000000;stroke-width:4.565;stroke-linecap:butt;stroke-linejoin:miter;stroke-miterlimit:4;stroke-opacity:1"
       d="m 288.77172,52.073867 c 0,10.333116 -8.37224,18.705353 -18.70535,18.705353 -10.33312,0 -18.71049,-8.372237 -18.71049,-18.705353 0,-10.333116 8.37737,-18.710486 18.71049,-18.710486 10.33311,0 18.70535,8.37737 18.70535,18.710486 z m 0,0"
       transform="matrix(0.760979,0,0,0.760979,-189.53819,-23.65054)"
       id="path673" />
    <path
       style="fill:#000000;fill-opacity:1;fill-rule:nonzero;stroke:none"
       d="m 11.640625,21.496094 c -0.769531,0 -1.480469,-0.117188 -2.132813,-0.351563 C 8.859375,20.910156 8.304688,20.5625 7.835938,20.101562 7.367188,19.640625 7.003906,19.066406 6.746094,18.375 6.492188,17.6875 6.363281,16.890625 6.363281,15.984375 c 0,-0.839844 0.121094,-1.605469 0.367188,-2.289063 0.246093,-0.6875 0.601562,-1.273437 1.070312,-1.761718 0.449219,-0.472656 1.003907,-0.835938 1.664063,-1.09375 0.667968,-0.257813 1.394531,-0.386719 2.179687,-0.386719 0.4375,0 0.828125,0.02734 1.175781,0.08203 0.351563,0.04687 0.675782,0.109375 0.972657,0.191406 0.308593,0.08984 0.589843,0.191407 0.839843,0.304688 0.253907,0.109375 0.476563,0.214844 0.664063,0.308594 v 2.574218 H 14.992188 C 14.863281,13.800781 14.699219,13.667969 14.5,13.507812 c -0.195312,-0.15625 -0.417969,-0.308593 -0.667969,-0.460937 -0.253906,-0.152344 -0.527343,-0.28125 -0.824219,-0.386719 -0.296874,-0.105468 -0.613281,-0.15625 -0.953124,-0.15625 -0.375,0 -0.730469,0.0625 -1.066407,0.183594 -0.339843,0.121094 -0.652343,0.320312 -0.9375,0.601562 -0.273437,0.269532 -0.496093,0.628907 -0.667969,1.078126 -0.167968,0.445312 -0.25,0.988281 -0.25,1.625 0,0.667968 0.089844,1.222656 0.269532,1.671874 0.1875,0.445313 0.417968,0.796876 0.695312,1.054688 0.28125,0.261719 0.597656,0.449219 0.945313,0.5625 0.347656,0.109375 0.6875,0.164062 1.027343,0.164062 0.324219,0 0.644532,-0.05078 0.957032,-0.148437 0.320312,-0.101563 0.613281,-0.234375 0.882812,-0.40625 0.226563,-0.140625 0.4375,-0.285156 0.632813,-0.441406 0.191406,-0.160157 0.351562,-0.292969 0.476562,-0.410157 h 0.277344 v 2.542969 c -0.257813,0.117188 -0.503906,0.230469 -0.742187,0.335938 -0.234376,0.101562 -0.484376,0.195312 -0.742188,0.269531 -0.339844,0.101562 -0.65625,0.175781 -0.953125,0.226562 -0.292969,0.05469 -0.703125,0.08203 -1.21875,0.08203 z m 0,0"
       id="path675" />
    <path
       style="fill:#000000;fill-opacity:1;fill-rule:nonzero;stroke:none"
       d="m 21.925781,21.496094 c -0.765625,0 -1.476562,-0.117188 -2.128906,-0.351563 C 19.148438,20.910156 18.589844,20.5625 18.125,20.101562 17.65625,19.640625 17.292969,19.066406 17.035156,18.375 c -0.257812,-0.6875 -0.382812,-1.484375 -0.382812,-2.390625 0,-0.839844 0.121094,-1.605469 0.367187,-2.289063 0.246094,-0.6875 0.601563,-1.273437 1.070313,-1.761718 0.449218,-0.472656 1.003906,-0.835938 1.664062,-1.09375 0.667969,-0.257813 1.394532,-0.386719 2.179688,-0.386719 0.4375,0 0.828125,0.02734 1.175781,0.08203 0.351563,0.04687 0.671875,0.109375 0.96875,0.191406 0.3125,0.08984 0.589844,0.191407 0.839844,0.304688 0.257812,0.109375 0.476562,0.214844 0.667969,0.308594 v 2.574218 H 25.28125 C 25.152344,13.80078 24.988281,13.667968 24.789062,13.507811 24.59375,13.351561 24.371094,13.199218 24.121094,13.046874 23.867188,12.89453 23.589844,12.765624 23.296875,12.660155 23,12.554688 22.683594,12.503906 22.34375,12.503906 c -0.375,0 -0.730469,0.0625 -1.070312,0.183594 -0.335938,0.121094 -0.648438,0.320312 -0.9375,0.601562 -0.269532,0.269532 -0.492188,0.628907 -0.664063,1.078126 -0.167969,0.445312 -0.25,0.988281 -0.25,1.625 0,0.667968 0.08984,1.222656 0.269531,1.671874 0.1875,0.445313 0.417969,0.796876 0.695313,1.054688 0.28125,0.261719 0.597656,0.449219 0.945312,0.5625 0.34375,0.109375 0.6875,0.164062 1.027344,0.164062 0.324219,0 0.640625,-0.05078 0.957031,-0.148437 0.320313,-0.101563 0.613282,-0.234375 0.882813,-0.40625 0.226562,-0.140625 0.433593,-0.285156 0.628906,-0.441406 0.195313,-0.160157 0.355469,-0.292969 0.480469,-0.410157 h 0.277344 v 2.542969 c -0.257813,0.117188 -0.507813,0.230469 -0.742188,0.335938 -0.238281,0.101562 -0.484375,0.195312 -0.742188,0.269531 -0.339843,0.101562 -0.65625,0.175781 -0.953124,0.226562 -0.296876,0.05469 -0.703126,0.08203 -1.222657,0.08203 z m 0,0"
       id="path677" />
  </g>
</svg>
