<?xml version="1.0" encoding="UTF-8" standalone="no"?>
<svg
   xmlns:dc="http://purl.org/dc/elements/1.1/"
   xmlns:cc="http://creativecommons.org/ns#"
   xmlns:rdf="http://www.w3.org/1999/02/22-rdf-syntax-ns#"
   xmlns:svg="http://www.w3.org/2000/svg"
   xmlns="http://www.w3.org/2000/svg"
   xmlns:sodipodi="http://sodipodi.sourceforge.net/DTD/sodipodi-0.dtd"
   xmlns:inkscape="http://www.inkscape.org/namespaces/inkscape"
   width="32"
   height="33"
   viewBox="0 0 32 33.000002"
   version="1.1"
   id="svg208"
   inkscape:version="1.0.2-2 (e86c870879, 2021-01-15)"
   sodipodi:docname="blue-water-ai.svg">
  <defs
     id="defs202" />
  <sodipodi:namedview
     id="base"
     pagecolor="#ffffff"
     bordercolor="#666666"
     borderopacity="1.0"
     inkscape:pageopacity="0.0"
     inkscape:pageshadow="2"
     inkscape:zoom="15.839192"
     inkscape:cx="6.4182757"
     inkscape:cy="8.6014316"
     inkscape:document-units="px"
     inkscape:current-layer="layer1"
     inkscape:document-rotation="0"
     showgrid="false"
     units="px"
     fit-margin-top="1"
     fit-margin-left="0"
     fit-margin-right="0"
     fit-margin-bottom="0"
     inkscape:window-width="2560"
     inkscape:window-height="1377"
     inkscape:window-x="-8"
     inkscape:window-y="-8"
     inkscape:window-maximized="1" />
  <metadata
     id="metadata205">
    <rdf:RDF>
      <cc:Work
         rdf:about="">
        <dc:format>image/svg+xml</dc:format>
        <dc:type
           rdf:resource="http://purl.org/dc/dcmitype/StillImage" />
        <dc:title></dc:title>
      </cc:Work>
    </rdf:RDF>
  </metadata>
  <g
     inkscape:label="Layer 1"
     inkscape:groupmode="layer"
     id="layer1"
     transform="translate(-86.053573,-61.619048)">
    <circle
       style="display:inline;fill:#92cce3;fill-opacity:1;fill-rule:nonzero;stroke:#000000;stroke-width:2.09694;stroke-linecap:butt;stroke-linejoin:miter;stroke-miterlimit:4;stroke-dasharray:none;stroke-opacity:1;paint-order:markers stroke fill"
       id="path4533"
       cx="102.05357"
       cy="78.619049"
       inkscape:export-filename="C:\Users\mbl\Downloads\Ugly\Images\BlueWater.png"
       inkscape:export-xdpi="216.25566"
       inkscape:export-ydpi="216.25566"
       r="14.951529" />
    <g
       aria-label="CC"
       transform="scale(0.98629835,1.013892)"
       id="text4664-3"
       style="font-style:normal;font-variant:normal;font-weight:bold;font-stretch:normal;font-size:14.4374px;line-height:1.25;font-family:sans-serif;-inkscape-font-specification:'sans-serif, Bold';font-variant-ligatures:normal;font-variant-caps:normal;font-variant-numeric:normal;font-variant-east-asian:normal;text-align:start;letter-spacing:0px;word-spacing:0px;writing-mode:lr-tb;text-anchor:start;display:inline;fill:#000000;fill-opacity:1;stroke:none;stroke-width:0.360932">
      <path
         d="m 98.866375,82.622565 q -1.170219,0 -2.1642,-0.345426 -0.986932,-0.345426 -1.698933,-1.029229 -0.712,-0.683803 -1.106773,-1.705982 -0.387723,-1.022179 -0.387723,-2.361586 0,-1.247764 0.373624,-2.262893 0.373624,-1.01513 1.085625,-1.74123 0.683802,-0.697901 1.691883,-1.078575 1.015129,-0.380674 2.213546,-0.380674 0.662654,0 1.191366,0.07755 0.53576,0.07049 0.98693,0.190337 0.47232,0.13394 0.85299,0.303129 0.38773,0.162138 0.67676,0.303129 v 2.544873 h -0.31018 q -0.19739,-0.169188 -0.50052,-0.401822 -0.29608,-0.232634 -0.67675,-0.458218 -0.38772,-0.225584 -0.83889,-0.380674 -0.45117,-0.155089 -0.965785,-0.155089 -0.57101,0 -1.085624,0.183287 -0.514615,0.176238 -0.951684,0.592159 -0.415922,0.401823 -0.676754,1.064477 -0.253782,0.662654 -0.253782,1.607288 0,0.986932 0.274931,1.649586 0.28198,0.662654 0.704951,1.043328 0.43002,0.387723 0.958734,0.556911 0.528713,0.162139 1.043327,0.162139 0.493466,0 0.972836,-0.14804 0.48641,-0.14804 0.89529,-0.401822 0.34542,-0.204436 0.6415,-0.43707 0.29608,-0.232634 0.48642,-0.401822 h 0.28198 v 2.509626 q -0.39478,0.176238 -0.7543,0.331327 -0.35953,0.15509 -0.7543,0.267882 -0.51461,0.14804 -0.96578,0.225584 -0.45117,0.07755 -1.240715,0.07755 z"
         style="font-style:normal;font-variant:normal;font-weight:bold;font-stretch:normal;font-size:14.4374px;font-family:sans-serif;-inkscape-font-specification:'sans-serif, Bold';font-variant-ligatures:normal;font-variant-caps:normal;font-variant-numeric:normal;font-variant-east-asian:normal;text-align:start;writing-mode:lr-tb;text-anchor:start;stroke-width:0.360932"
         id="path225" />
      <path
         d="m 109.31375,82.622565 q -1.17022,0 -2.1642,-0.345426 -0.98693,-0.345426 -1.69893,-1.029229 -0.712,-0.683803 -1.10677,-1.705982 -0.38773,-1.022179 -0.38773,-2.361586 0,-1.247764 0.37363,-2.262893 0.37362,-1.01513 1.08562,-1.74123 0.6838,-0.697901 1.69188,-1.078575 1.01513,-0.380674 2.21355,-0.380674 0.66265,0 1.19137,0.07755 0.53576,0.07049 0.98693,0.190337 0.47232,0.13394 0.85299,0.303129 0.38772,0.162138 0.67675,0.303129 v 2.544873 h -0.31017 q -0.19739,-0.169188 -0.50052,-0.401822 -0.29608,-0.232634 -0.67675,-0.458218 -0.38773,-0.225584 -0.8389,-0.380674 -0.45116,-0.155089 -0.96578,-0.155089 -0.57101,0 -1.08562,0.183287 -0.51462,0.176238 -0.95169,0.592159 -0.41592,0.401823 -0.67675,1.064477 -0.25378,0.662654 -0.25378,1.607288 0,0.986932 0.27493,1.649586 0.28198,0.662654 0.70495,1.043328 0.43002,0.387723 0.95873,0.556911 0.52872,0.162139 1.04333,0.162139 0.49347,0 0.97283,-0.14804 0.48642,-0.14804 0.89529,-0.401822 0.34543,-0.204436 0.64151,-0.43707 0.29608,-0.232634 0.48641,-0.401822 h 0.28198 v 2.509626 q -0.39477,0.176238 -0.75429,0.331327 -0.35953,0.15509 -0.7543,0.267882 -0.51462,0.14804 -0.96578,0.225584 -0.45117,0.07755 -1.24072,0.07755 z"
         style="font-style:normal;font-variant:normal;font-weight:bold;font-stretch:normal;font-size:14.4374px;font-family:sans-serif;-inkscape-font-specification:'sans-serif, Bold';font-variant-ligatures:normal;font-variant-caps:normal;font-variant-numeric:normal;font-variant-east-asian:normal;text-align:start;writing-mode:lr-tb;text-anchor:start;stroke-width:0.360932"
         id="path227" />
    </g>
  </g>
</svg>
