<?xml version="1.0" encoding="UTF-8" standalone="no"?>
<svg
   xmlns:dc="http://purl.org/dc/elements/1.1/"
   xmlns:cc="http://creativecommons.org/ns#"
   xmlns:rdf="http://www.w3.org/1999/02/22-rdf-syntax-ns#"
   xmlns:svg="http://www.w3.org/2000/svg"
   xmlns="http://www.w3.org/2000/svg"
   xmlns:sodipodi="http://sodipodi.sourceforge.net/DTD/sodipodi-0.dtd"
   xmlns:inkscape="http://www.inkscape.org/namespaces/inkscape"
   width="32.019936"
   height="34.036331"
   viewBox="0 0 32.019936 34.036331"
   version="1.1"
   id="svg9"
   sodipodi:docname="blue-awacs-ai.svg"
   inkscape:version="1.0.2-2 (e86c870879, 2021-01-15)">
  <metadata
     id="metadata15">
    <rdf:RDF>
      <cc:Work
         rdf:about="">
        <dc:format>image/svg+xml</dc:format>
        <dc:type
           rdf:resource="http://purl.org/dc/dcmitype/StillImage" />
        <dc:title></dc:title>
      </cc:Work>
    </rdf:RDF>
  </metadata>
  <defs
     id="defs13" />
  <sodipodi:namedview
     pagecolor="#ffffff"
     bordercolor="#666666"
     borderopacity="1"
     objecttolerance="10"
     gridtolerance="10"
     guidetolerance="10"
     inkscape:pageopacity="0"
     inkscape:pageshadow="2"
     inkscape:window-width="2560"
     inkscape:window-height="1377"
     id="namedview11"
     showgrid="false"
     units="px"
     fit-margin-top="1"
     inkscape:snap-page="true"
     fit-margin-left="0"
     fit-margin-right="0"
     fit-margin-bottom="0"
     inkscape:zoom="16.199174"
     inkscape:cx="11.741466"
     inkscape:cy="30.096148"
     inkscape:window-x="-8"
     inkscape:window-y="-8"
     inkscape:window-maximized="1"
     inkscape:current-layer="svg9" />
  <g
     id="surface1"
     transform="translate(-7.2182839e-4,1.0018444)">
    <path
       style="fill:#91cce3;fill-opacity:1;fill-rule:nonzero;stroke:#000000;stroke-width:2.5;stroke-linecap:butt;stroke-linejoin:miter;stroke-miterlimit:4;stroke-opacity:1"
       d="m 96.33058,65.549846 c -0.06046,-29.185547 11.91555,-38.653421 17.76171,-38.578055 5.84615,0.08008 18.05936,9.453743 17.85937,38.578055"
       transform="matrix(0.839895,0,0,0.829285,-79.85679,-21.332135)"
       id="path2" />
    <path
       style="fill:#000000;fill-opacity:1;fill-rule:nonzero;stroke:none"
       d="M 24.359375,10.726562 21.285156,22.304688 H 18.03125 l -2.046875,-7.542969 -1.992187,7.542969 H 10.734375 L 7.664062,10.726562 h 3.070313 l 1.757813,7.972657 2.097656,-7.972657 h 2.933594 l 2,7.972657 1.839843,-7.972657 z m 0,0"
       id="path4" />
    <path
       style="fill:#000000;fill-opacity:1;fill-rule:nonzero;stroke:#000000;stroke-width:0.332325;stroke-linecap:butt;stroke-linejoin:miter;stroke-miterlimit:4;stroke-opacity:1"
       d="m 103.09296,54.051796 c -2.01848,2.661367 -2.25568,5.393391 0,8.233753 l 11.1156,-4.116877 z m 11.1156,4.116876 11.1156,4.116877 c 1.64641,-2.218591 2.25568,-4.77162 0,-8.233753 z m 0,0"
       transform="matrix(0.839895,0,0,0.829285,-79.85679,-21.332135)"
       id="path6" />
  </g>
</svg>
