<?xml version="1.0" encoding="UTF-8" standalone="no"?>
<svg
   xmlns:dc="http://purl.org/dc/elements/1.1/"
   xmlns:cc="http://creativecommons.org/ns#"
   xmlns:rdf="http://www.w3.org/1999/02/22-rdf-syntax-ns#"
   xmlns:svg="http://www.w3.org/2000/svg"
   xmlns="http://www.w3.org/2000/svg"
   xmlns:sodipodi="http://sodipodi.sourceforge.net/DTD/sodipodi-0.dtd"
   xmlns:inkscape="http://www.inkscape.org/namespaces/inkscape"
   width="31.941912"
   height="32.941917"
   viewBox="0 0 31.941912 32.941917"
   version="1.1"
   id="svg964"
   sodipodi:docname="marker-recon.svg"
   inkscape:version="1.0.2-2 (e86c870879, 2021-01-15)">
  <metadata
     id="metadata970">
    <rdf:RDF>
      <cc:Work
         rdf:about="">
        <dc:format>image/svg+xml</dc:format>
        <dc:type
           rdf:resource="http://purl.org/dc/dcmitype/StillImage" />
        <dc:title></dc:title>
      </cc:Work>
    </rdf:RDF>
  </metadata>
  <defs
     id="defs968" />
  <sodipodi:namedview
     pagecolor="#ffffff"
     bordercolor="#666666"
     borderopacity="1"
     objecttolerance="10"
     gridtolerance="10"
     guidetolerance="10"
     inkscape:pageopacity="0"
     inkscape:pageshadow="2"
     inkscape:window-width="2216"
     inkscape:window-height="1147"
     id="namedview966"
     showgrid="false"
     units="px"
     fit-margin-top="1"
     fit-margin-left="0"
     fit-margin-right="0"
     fit-margin-bottom="0"
     inkscape:zoom="17.695313"
     inkscape:cx="21.333577"
     inkscape:cy="22.333669"
     inkscape:window-x="0"
     inkscape:window-y="0"
     inkscape:window-maximized="0"
     inkscape:current-layer="svg964" />
  <g
     id="surface1"
     transform="translate(2.4359723e-4,1.0003356)">
    <path
       style="fill:#ffcf00;fill-opacity:1;fill-rule:evenodd;stroke:#ab4a00;stroke-width:2.165;stroke-linecap:butt;stroke-linejoin:miter;stroke-miterlimit:4;stroke-opacity:1"
       d="m -10.728065,217.65292 c 0,8.19468 -6.641386,14.83607 -14.836063,14.83607 -8.190784,0 -14.83217,-6.64139 -14.83217,-14.83607 0,-8.19078 6.641386,-14.83217 14.83217,-14.83217 8.194677,0 14.836063,6.64139 14.836063,14.83217 z m 0,0"
       transform="matrix(1.003414,0,0,1.003414,41.620163,-202.42732)"
       id="path959" />
    <path
       style="fill:#5e2800;fill-opacity:1;fill-rule:nonzero;stroke:none"
       d="m 17.050781,13.253906 c 0,-0.347656 -0.07031,-0.652344 -0.210937,-0.902344 -0.140625,-0.25 -0.382813,-0.449218 -0.722656,-0.59375 -0.238282,-0.09766 -0.515626,-0.160156 -0.832032,-0.175781 -0.320312,-0.02734 -0.6875,-0.03906 -1.109375,-0.03906 h -1.273437 v 3.773437 h 1.082031 c 0.5625,0 1.03125,-0.02734 1.410156,-0.08594 0.378907,-0.05469 0.695313,-0.183594 0.949219,-0.382813 0.246094,-0.195312 0.421875,-0.410156 0.53125,-0.640625 0.117188,-0.238281 0.175781,-0.554687 0.175781,-0.953125 z m 5.484375,9.722656 h -4.292968 l -3.71875,-5.136718 h -1.621094 v 5.136718 H 9.40625 V 8.964844 h 5.894531 c 0.808594,0 1.5,0.046875 2.078125,0.140625 0.582032,0.09375 1.125,0.296875 1.628906,0.613281 0.515626,0.3125 0.917969,0.71875 1.21875,1.222656 0.304688,0.496094 0.457032,1.121094 0.457032,1.871094 0,1.035156 -0.234375,1.878906 -0.703125,2.53125 -0.464844,0.652344 -1.128907,1.195312 -1.996094,1.628906 z m 0,0"
       id="path961" />
  </g>
</svg>
