<?xml version="1.0" encoding="UTF-8" standalone="no"?>
<svg
   xmlns:dc="http://purl.org/dc/elements/1.1/"
   xmlns:cc="http://creativecommons.org/ns#"
   xmlns:rdf="http://www.w3.org/1999/02/22-rdf-syntax-ns#"
   xmlns:svg="http://www.w3.org/2000/svg"
   xmlns="http://www.w3.org/2000/svg"
   xmlns:sodipodi="http://sodipodi.sourceforge.net/DTD/sodipodi-0.dtd"
   xmlns:inkscape="http://www.inkscape.org/namespaces/inkscape"
   width="32.000004"
   height="33"
   viewBox="0 0 32.000004 33"
   version="1.1"
   id="svg1882"
   sodipodi:docname="red-water-ai.svg"
   inkscape:version="1.0.2-2 (e86c870879, 2021-01-15)">
  <metadata
     id="metadata1888">
    <rdf:RDF>
      <cc:Work
         rdf:about="">
        <dc:format>image/svg+xml</dc:format>
        <dc:type
           rdf:resource="http://purl.org/dc/dcmitype/StillImage" />
        <dc:title></dc:title>
      </cc:Work>
    </rdf:RDF>
  </metadata>
  <defs
     id="defs1886" />
  <sodipodi:namedview
     pagecolor="#ffffff"
     bordercolor="#666666"
     borderopacity="1"
     objecttolerance="10"
     gridtolerance="10"
     guidetolerance="10"
     inkscape:pageopacity="0"
     inkscape:pageshadow="2"
     inkscape:window-width="2560"
     inkscape:window-height="1377"
     id="namedview1884"
     showgrid="false"
     units="px"
     fit-margin-top="1"
     fit-margin-left="0"
     fit-margin-right="0"
     fit-margin-bottom="0"
     inkscape:zoom="22.101563"
     inkscape:cx="21.327326"
     inkscape:cy="22.327304"
     inkscape:window-x="-8"
     inkscape:window-y="-8"
     inkscape:window-maximized="1"
     inkscape:current-layer="svg1882"
     inkscape:document-rotation="0" />
  <g
     id="surface1"
     transform="matrix(1.0880527,0,0,1.0880527,-1.4153801,-0.41540374)"
     style="stroke-width:1;stroke-miterlimit:4;stroke-dasharray:none">
    <path
       style="fill:#e87f7d;fill-opacity:1;fill-rule:nonzero;stroke:#000000;stroke-width:1.62278;stroke-linecap:butt;stroke-linejoin:miter;stroke-miterlimit:4;stroke-dasharray:none;stroke-opacity:1"
       d="m -41.273776,412.36077 h 32.129362 l -0.00448,32.12488 H -41.26929 Z m 0,0"
       transform="matrix(0.435739,-0.435739,0.435739,0.435739,-159.68908,-181.65823)"
       id="path1875" />
    <path
       style="fill:#000000;fill-opacity:1;fill-rule:nonzero;stroke:none;stroke-width:1;stroke-miterlimit:4;stroke-dasharray:none"
       d="m 12.496094,20.476562 c -0.621094,0 -1.195313,-0.09375 -1.726563,-0.28125 -0.523437,-0.191406 -0.976562,-0.472656 -1.355469,-0.84375 -0.375,-0.375 -0.671874,-0.839843 -0.878906,-1.398437 -0.207031,-0.558594 -0.3125,-1.207031 -0.3125,-1.9375 0,-0.683594 0.101563,-1.300781 0.300782,-1.855469 0.195312,-0.554687 0.484374,-1.03125 0.863281,-1.425781 0.363281,-0.382813 0.8125,-0.675781 1.351562,-0.886719 0.539063,-0.207031 1.125,-0.3125 1.761719,-0.3125 0.355469,0 0.671875,0.02344 0.953125,0.06641 0.285156,0.03906 0.546875,0.08984 0.785156,0.15625 0.25,0.07031 0.480469,0.15625 0.679688,0.246094 0.207031,0.08984 0.386719,0.171875 0.539062,0.25 v 2.085938 h -0.246093 c -0.105469,-0.09375 -0.238282,-0.203125 -0.398438,-0.328125 -0.15625,-0.128907 -0.335938,-0.253907 -0.539062,-0.375 -0.207032,-0.125 -0.429688,-0.230469 -0.667969,-0.3125 -0.242188,-0.08594 -0.5,-0.128907 -0.773438,-0.128907 -0.300781,0 -0.589843,0.05078 -0.863281,0.152344 -0.273438,0.09375 -0.527344,0.257813 -0.757812,0.484375 -0.222657,0.21875 -0.402344,0.507813 -0.542969,0.871094 -0.132813,0.363281 -0.199219,0.800781 -0.199219,1.316406 0,0.542969 0.07031,0.992188 0.21875,1.355469 0.148438,0.359375 0.335938,0.644531 0.5625,0.855469 0.226562,0.210937 0.480469,0.363281 0.761719,0.453125 0.28125,0.08984 0.558593,0.132812 0.832031,0.132812 0.261719,0 0.523438,-0.03906 0.777344,-0.121094 0.257812,-0.07812 0.496094,-0.1875 0.714844,-0.328124 0.183593,-0.113282 0.351562,-0.230469 0.511718,-0.359376 0.15625,-0.125 0.285156,-0.234374 0.386719,-0.328124 h 0.222656 v 2.058593 c -0.207031,0.09375 -0.410156,0.1875 -0.601562,0.269531 -0.1875,0.08594 -0.390625,0.160157 -0.601563,0.21875 -0.273437,0.08203 -0.527344,0.144532 -0.769531,0.1875 -0.238281,0.04297 -0.566406,0.0625 -0.988281,0.0625 z m 0,0"
       id="path1877" />
    <path
       style="fill:#000000;fill-opacity:1;fill-rule:nonzero;stroke:none;stroke-width:1;stroke-miterlimit:4;stroke-dasharray:none"
       d="m 20.828125,20.476562 c -0.621094,0 -1.199219,-0.09375 -1.726563,-0.28125 -0.523437,-0.191406 -0.976562,-0.472656 -1.355468,-0.84375 -0.378906,-0.375 -0.671875,-0.839843 -0.882813,-1.398437 -0.207031,-0.558594 -0.308593,-1.207031 -0.308593,-1.9375 0,-0.683594 0.101562,-1.300781 0.296874,-1.855469 0.199219,-0.554687 0.488282,-1.03125 0.867188,-1.425781 0.363281,-0.382813 0.8125,-0.675781 1.347656,-0.886719 0.542969,-0.207031 1.128906,-0.3125 1.765625,-0.3125 0.351563,0 0.667969,0.02344 0.949219,0.06641 0.285156,0.03906 0.550781,0.08984 0.789062,0.15625 0.25,0.07031 0.476563,0.15625 0.679688,0.246094 0.207031,0.08984 0.386719,0.171875 0.539062,0.25 v 2.085938 h -0.246093 c -0.105469,-0.09375 -0.238281,-0.203125 -0.398438,-0.328125 -0.160156,-0.128907 -0.339843,-0.253907 -0.539062,-0.375 -0.207031,-0.125 -0.429688,-0.230469 -0.671875,-0.3125 -0.238282,-0.08594 -0.496094,-0.128907 -0.769532,-0.128907 -0.304687,0 -0.589843,0.05078 -0.863281,0.152344 -0.277343,0.09375 -0.527343,0.257813 -0.761719,0.484375 -0.21875,0.21875 -0.398437,0.507813 -0.539062,0.871094 -0.132812,0.363281 -0.203125,0.800781 -0.203125,1.316406 0,0.542969 0.07422,0.992188 0.21875,1.355469 0.152344,0.359375 0.339844,0.644531 0.5625,0.855469 0.230469,0.210937 0.484375,0.363281 0.765625,0.453125 0.28125,0.08984 0.558594,0.132812 0.832031,0.132812 0.261719,0 0.519531,-0.03906 0.777344,-0.121094 0.257813,-0.07812 0.496094,-0.1875 0.710937,-0.328124 0.183594,-0.113282 0.355469,-0.230469 0.511719,-0.359376 0.160157,-0.125 0.289063,-0.234374 0.390625,-0.328124 h 0.222656 v 2.058593 c -0.210937,0.09375 -0.410156,0.1875 -0.601562,0.269531 -0.191406,0.08594 -0.390625,0.160157 -0.601562,0.21875 -0.273438,0.08203 -0.53125,0.144532 -0.769532,0.1875 -0.238281,0.04297 -0.570312,0.0625 -0.988281,0.0625 z m 0,0"
       id="path1879" />
  </g>
</svg>
