<svg xmlns="http://www.w3.org/2000/svg" width="128" height="128">
  <path 
    style="fill:#000000"
    d="m 99.978516,71.325195 q 0,2.742188 -1.117188,4.900391 -1.091797,2.158203 -3.021484,3.580078 -2.234375,1.675781 -4.925782,2.386719 -2.666015,0.710937 -6.779296,0.710937 H 67.630859 V 45.09668 h 14.675782 q 4.570312,0 6.677734,0.304687 2.132812,0.304688 4.214844,1.345703 2.158203,1.091797 3.199218,2.945313 1.066407,1.828125 1.066407,4.189453 0,2.742187 -1.447266,4.849609 -1.447266,2.082032 -4.087891,3.25 v 0.203125 q 3.707032,0.736328 5.865235,3.046875 2.183594,2.310547 2.183594,6.09375 z M 87.486328,55.786133 q 0,-0.939453 -0.482422,-1.878906 -0.457031,-0.939454 -1.65039,-1.396485 -1.066407,-0.40625 -2.666016,-0.43164 -1.574219,-0.05078 -4.443359,-0.05078 h -0.914063 v 7.998047 h 1.523438 q 2.310546,0 3.935546,-0.07617 1.625,-0.07617 2.564454,-0.507812 1.320312,-0.583985 1.726562,-1.498047 0.40625,-0.939453 0.40625,-2.158203 z m 2.386719,15.386719 q 0,-1.802735 -0.710938,-2.767579 -0.685547,-0.990234 -2.361328,-1.472656 -1.142578,-0.330078 -3.148437,-0.355469 -2.00586,-0.02539 -4.189453,-0.02539 h -2.132813 v 9.419922 h 0.710938 q 4.113281,0 5.890625,-0.02539 1.777343,-0.02539 3.27539,-0.660156 1.523438,-0.634766 2.082031,-1.675781 0.583985,-1.066407 0.583985,-2.437501 z m -29.503906,0.152343 q 0,2.742188 -1.117188,4.900391 -1.091797,2.158203 -3.021484,3.580078 -2.234375,1.675781 -4.925782,2.386719 -2.666015,0.710937 -6.779296,0.710937 H 28.021484 V 45.09668 h 14.675782 q 4.570312,0 6.677734,0.304687 2.132812,0.304688 4.214844,1.345703 2.158203,1.091797 3.199218,2.945313 1.066407,1.828125 1.066407,4.189453 0,2.742187 -1.447266,4.849609 -1.447266,2.082032 -4.087891,3.25 v 0.203125 q 3.707032,0.736328 5.865235,3.046875 2.183594,2.310547 2.183594,6.09375 z M 47.876953,55.786133 q 0,-0.939453 -0.482422,-1.878906 -0.457031,-0.939454 -1.65039,-1.396485 -1.066407,-0.40625 -2.666016,-0.43164 -1.574219,-0.05078 -4.443359,-0.05078 h -0.914063 v 7.998047 h 1.523438 q 2.310546,0 3.935546,-0.07617 1.625,-0.07617 2.564454,-0.507812 1.320312,-0.583985 1.726562,-1.498047 0.40625,-0.939453 0.40625,-2.158203 z m 2.386719,15.386719 q 0,-1.802735 -0.710938,-2.767579 -0.685547,-0.990234 -2.361328,-1.472656 -1.142578,-0.330078 -3.148437,-0.355469 -2.00586,-0.02539 -4.189453,-0.02539 h -2.132813 v 9.419922 h 0.710938 q 4.113281,0 5.890625,-0.02539 1.777343,-0.02539 3.27539,-0.660156 1.523438,-0.634766 2.082031,-1.675781 0.583985,-1.066407 0.583985,-2.437501 z" 
    id="battleship" />
</svg>