<svg xmlns="http://www.w3.org/2000/svg" width="128" height="128">
  <path
     style="fill:#000000"
     d="m 88.38481,88.351727 q 0,4.13431 -1.68435,7.38818 -1.64607,3.253861 -4.55541,5.397583 -3.3687,2.52653 -7.42645,3.59839 -4.01948,1.07186 -10.22096,1.07186 H 39.61518 V 48.807746 h 22.12625 q 6.89053,0 10.06783,0.459368 3.21558,0.459369 6.3546,2.028878 3.25386,1.646071 4.82337,4.440563 1.60779,2.756212 1.60779,6.316318 0,4.134317 -2.182,7.311617 -2.182,3.139018 -6.1632,4.899931 v 0.306246 q 5.58899,1.11014 8.84285,4.593685 3.29214,3.483545 3.29214,9.187375 z M 69.5507,64.923927 q 0,-1.416387 -0.72733,-2.832773 -0.68906,-1.416387 -2.48825,-2.10544 -1.60779,-0.612491 -4.01948,-0.650772 -2.3734,-0.07656 -6.69912,-0.07656 h -1.37811 v 12.058425 h 2.29685 q 3.48354,0 5.93351,-0.114842 2.44996,-0.114842 3.86635,-0.765614 1.9906,-0.880457 2.60309,-2.258563 0.61249,-1.416386 0.61249,-3.253861 z m 3.59839,23.19811 q 0,-2.717928 -1.07186,-4.172595 -1.03358,-1.492948 -3.56011,-2.220282 -1.72263,-0.497649 -4.74681,-0.53593 -3.02418,-0.03828 -6.31632,-0.03828 h -3.21558 v 14.202147 h 1.07186 q 6.20148,0 8.88113,-0.0383 2.67965,-0.0383 4.93821,-0.9953 2.29684,-0.95702 3.13902,-2.52653 0.88046,-1.60779 0.88046,-3.67495 z"
     id="bomber" />
</svg>