<svg xmlns="http://www.w3.org/2000/svg" width="128" height="128">
  <path
     style="fill:#000000"
     d="m 68.292496,106.21446 q -6.116354,0 -11.311571,-1.80543 -5.158371,-1.80543 -8.879767,-5.379446 -3.721397,-3.574014 -5.784745,-8.916613 -2.026503,-5.342599 -2.026503,-12.343245 0,-6.521655 1.952812,-11.827409 1.952812,-5.305753 5.674208,-9.10084 3.574014,-3.647706 8.842922,-5.637363 5.305753,-1.989658 11.56949,-1.989658 3.463478,0 6.226891,0.405301 2.800259,0.368455 5.158371,0.994829 2.468649,0.700064 4.458307,1.584357 2.026503,0.847446 3.537169,1.584356 v 13.301229 h -1.621203 q -1.031674,-0.884292 -2.616031,-2.100194 -1.547511,-1.215902 -3.537169,-2.394958 -2.026503,-1.179056 -4.384615,-1.989657 -2.358113,-0.810602 -5.047835,-0.810602 -2.984486,0 -5.674208,0.957984 -2.689723,0.921137 -4.974144,3.095022 -2.173885,2.100194 -3.537169,5.563672 -1.326438,3.463478 -1.326438,8.400776 0,5.158372 1.436975,8.621849 1.47382,3.463478 3.68455,5.453136 2.247577,2.026503 5.01099,2.910795 2.763413,0.847447 5.453135,0.847447 2.579186,0 5.08468,-0.773756 2.54234,-0.773756 4.67938,-2.100194 1.80543,-1.06852 3.352941,-2.284422 1.547512,-1.215901 2.54234,-2.100194 h 1.473821 v 13.116998 q -2.063349,0.92114 -3.94247,1.73174 -1.879121,0.8106 -3.942469,1.40013 -2.689722,0.77376 -5.047835,1.17906 -2.358113,0.4053 -6.48481,0.4053 z"
     id="cargo" />
</svg>