<svg xmlns="http://www.w3.org/2000/svg" width="128" height="128">
  <path 
    style="fill:#000000"
    d="m 101.34326,81.04126 q -2.587889,1.009277 -6.857908,2.018554 -4.27002,0.983399 -8.514161,0.983399 -9.833984,0 -15.397949,-5.331055 -5.563965,-5.356933 -5.563965,-14.776855 0,-8.979981 5.615723,-14.466309 5.615723,-5.512207 15.656738,-5.512207 3.804199,0 7.246094,0.698731 3.441895,0.672851 7.660158,2.717285 v 9.031738 h -1.11279 q -0.724614,-0.543457 -2.122075,-1.526855 -1.397461,-1.009278 -2.691406,-1.708008 -1.500977,-0.828125 -3.519532,-1.42334 -1.992675,-0.595215 -4.24414,-0.595215 -2.639649,0 -4.787598,0.776367 -2.147949,0.776367 -3.855957,2.38086 -1.630371,1.552734 -2.58789,3.959472 -0.931641,2.38086 -0.931641,5.512207 0,6.39209 3.390137,9.782227 3.390136,3.390137 10.015136,3.390137 0.569336,0 1.242188,-0.02588 0.69873,-0.02588 1.268066,-0.07764 V 69.292232 H 83.564453 V 62.02026 h 17.778807 z m -55.018553,2.950195 q -4.295898,0 -7.944824,-1.268066 -3.623047,-1.268067 -6.236817,-3.778321 -2.613769,-2.510254 -4.062988,-6.262695 -1.42334,-3.752441 -1.42334,-8.669434 0,-4.580566 1.371582,-8.307128 1.371582,-3.726563 3.985352,-6.39209 2.510254,-2.562012 6.210937,-3.959473 3.726563,-1.397461 8.125977,-1.397461 2.432617,0 4.373535,0.284668 1.966797,0.258789 3.623047,0.698731 1.733887,0.491699 3.131348,1.112793 1.423339,0.595214 2.484375,1.112792 v 9.342286 h -1.138672 q -0.72461,-0.621094 -1.837403,-1.475098 -1.086914,-0.854004 -2.484375,-1.682129 -1.423339,-0.828125 -3.079589,-1.397461 -1.65625,-0.569336 -3.545411,-0.569336 -2.096191,0 -3.985351,0.672852 -1.88916,0.646972 -3.493653,2.173828 -1.526855,1.475098 -2.484375,3.907715 -0.93164,2.432617 -0.93164,5.90039 0,3.623047 1.009277,6.055664 1.035156,2.432618 2.587891,3.830079 1.578613,1.423339 3.519531,2.044433 1.940918,0.595215 3.830078,0.595215 1.811524,0 3.571289,-0.543457 1.785645,-0.543457 3.286621,-1.475098 1.268067,-0.750488 2.354981,-1.604492 1.086914,-0.854004 1.785644,-1.475098 h 1.035157 v 9.212891 q -1.449219,0.646973 -2.769043,1.216309 -1.319825,0.569336 -2.769043,0.983398 -1.88916,0.543457 -3.54541,0.828125 -1.65625,0.284668 -4.554688,0.284668 z" 
    id="cruiser" />
</svg>