<svg xmlns="http://www.w3.org/2000/svg" width="128" height="128">
  <path 
    style="fill:#000000"
    d="m 103.44434,64.038086 q 0,5.28125 -2.41211,9.470703 -2.412113,4.164062 -6.093753,6.398437 -2.76758,1.675781 -6.06836,2.335937 -3.30078,0.660157 -7.82031,0.660157 H 67.719727 V 45.096679 h 13.71094 q 4.62109,0 7.97265,0.787109 3.35157,0.761719 5.63672,2.183594 3.91016,2.386719 6.144533,6.449219 2.25977,4.03711 2.25977,9.521485 z m -10.080083,-0.07617 q 0,-3.732422 -1.37109,-6.373047 -1.34571,-2.666016 -4.29102,-4.164063 -1.49805,-0.736328 -3.07226,-0.990234 -1.54883,-0.279297 -4.69727,-0.279297 h -2.46289 v 23.664062 h 2.46289 q 3.47852,0 5.10352,-0.304687 1.625,-0.330078 3.17382,-1.167969 2.66602,-1.523437 3.91016,-4.0625 1.24414,-2.564453 1.24414,-6.322265 z m -33.083984,0.07617 q 0,5.28125 -2.41211,9.470703 -2.412109,4.164062 -6.09375,6.398437 -2.767578,1.675781 -6.068359,2.335937 -3.300781,0.660157 -7.820312,0.660157 H 24.555663 V 45.096679 h 13.710938 q 4.621094,0 7.972656,0.787109 3.351563,0.761719 5.636719,2.183594 3.910156,2.386719 6.144531,6.449219 2.259766,4.03711 2.259766,9.521485 z m -10.080078,-0.07617 q 0,-3.732422 -1.371094,-6.373047 -1.345703,-2.666016 -4.291016,-4.164063 -1.498047,-0.736328 -3.072265,-0.990234 -1.548828,-0.279297 -4.697266,-0.279297 h -2.462891 v 23.664062 h 2.462891 q 3.478516,0 5.103516,-0.304687 1.625,-0.330078 3.173828,-1.167969 2.666015,-1.523437 3.910156,-4.0625 1.244141,-2.564453 1.244141,-6.322265 z" 
    id="destroyer" />
</svg>