<svg xmlns="http://www.w3.org/2000/svg" width="128" height="128">
  <path 
    style="fill:#000000"
    d="m 73.143845,66.25575 c 0,-1.41427 -0.25436,-2.653749 -0.76316,-3.670757 -0.50879,-1.017004 -1.38501,-1.82743 -2.61456,-2.41539 -0.86209,-0.39729 -1.86552,-0.651509 -3.01026,-0.715079 -1.15888,-0.111197 -2.48736,-0.158887 -4.01369,-0.158887 h -4.60726 v 15.35044 h 3.91476 c 2.03511,0 3.73103,-0.1112 5.1019,-0.3496 1.37088,-0.22249 2.51563,-0.74686 3.43425,-1.5573 0.89036,-0.79453 1.52633,-1.668518 1.92204,-2.606068 0.42399,-0.969338 0.63598,-2.256483 0.63598,-3.87734 z m 19.8423,39.55199 H 77.454315 L 63.999995,84.911457 h -5.86508 V 105.80774 H 45.486152 V 48.807746 h 21.326243 c 2.92547,0 5.42695,0.190665 7.51859,0.572071 2.10578,0.381377 4.07022,1.207692 5.89333,2.494838 1.86552,1.271256 3.32119,2.923886 4.40941,4.973791 1.10235,2.018123 1.65353,4.560637 1.65353,7.611661 0,4.211032 -0.84797,7.64343 -2.54389,10.29718 -1.68179,2.65376 -4.08435,4.86255 -7.22181,6.62643 z m 0,0" 
    id="r" />
</svg>
