<svg xmlns="http://www.w3.org/2000/svg" width="128" height="128">
  <path 
    style="fill:#000000"
    d="m 71.907694,52.948006 c 0,-1.41427 -0.254363,-2.653749 -0.763164,-3.670757 -0.508782,-1.017004 -1.385009,-1.82743 -2.614552,-2.41539 -0.862096,-0.39729 -1.865519,-0.651509 -3.010265,-0.715079 -1.158881,-0.111197 -2.487356,-0.158887 -4.013688,-0.158887 h -4.607258 v 15.35044 h 3.914756 c 2.035113,0 3.73103,-0.1112 5.101903,-0.3496 1.370874,-0.22249 2.515624,-0.74686 3.43425,-1.5573 0.890359,-0.79453 1.526332,-1.668518 1.92204,-2.606068 0.423985,-0.969338 0.635978,-2.256483 0.635978,-3.87734 z M 91.749998,92.499998 H 76.218167 L 62.76384,71.603713 H 56.898768 V 92.499998 H 44.250002 V 35.500002 h 21.326241 c 2.925468,0 5.426956,0.190665 7.518595,0.572071 2.105775,0.381377 4.070218,1.207692 5.89333,2.494838 1.86552,1.271256 3.32119,2.923886 4.40941,4.973791 1.10235,2.018123 1.65353,4.560637 1.65353,7.611661 0,4.211032 -0.84797,7.64343 -2.54389,10.29718 -1.68179,2.65376 -4.08435,4.86255 -7.221813,6.62643 z m 0,0" 
    id="r" />
</svg>
