<svg xmlns="http://www.w3.org/2000/svg" width="128" height="128">
  <path
     style="fill:none;stroke:#000000;stroke-width:4"
     d="m 45.576433,66.731059 20.72466,-20.48482 0.190105,11.651917 18.728257,-18.511507 m 2.695695,22.207468 -7.73379,7.396232 c -2.169771,2.07507 -4.693429,3.799816 -7.482834,4.941623 -2.789412,1.141807 -5.807448,1.734852 -8.826589,1.734422 -3.019126,-3.86e-4 -6.036993,-0.594335 -8.826058,-1.736936 -2.789071,-1.14261 -5.347147,-2.833007 -7.481382,-4.943767 -2.135546,-2.109476 -3.845677,-4.638015 -5.001657,-7.394814 -1.155981,-2.756789 -1.756842,-5.73973 -1.757276,-8.723928 -3.87e-4,-2.984207 0.599551,-5.967317 1.754725,-8.724438 1.155175,-2.75712 2.863835,-5.286872 4.999484,-7.396235 l 5.149346,-5.085983"
     id="radar" />
</svg>